<svg width="396" height="360" viewBox="0 0 396 360" fill="none" xmlns="http://www.w3.org/2000/svg">
<path fill-rule="evenodd" clip-rule="evenodd" d="M364.951 178.374L198.377 344.948C185.172 344.735 171.779 342.913 158.442 339.339C70.937 315.892 19.0074 225.948 42.4544 138.442C65.9014 50.9371 155.846 -0.992434 243.351 22.4545C315.82 41.8723 363.888 106.897 364.951 178.374Z" fill="#F3CEB4"/>
<path d="M198.377 344.948L198.297 349.947L200.415 349.982L201.913 348.484L198.377 344.948ZM364.951 178.374L368.487 181.91L369.982 180.414L369.951 178.3L364.951 178.374ZM201.913 348.484L368.487 181.91L361.416 174.839L194.842 341.413L201.913 348.484ZM198.458 339.949C185.659 339.743 172.673 337.976 159.736 334.51L157.148 344.169C170.884 347.849 184.684 349.728 198.297 349.947L198.458 339.949ZM159.736 334.51C74.8984 311.777 24.5518 224.574 47.2841 139.736L37.6248 137.148C13.4631 227.321 66.9756 320.007 157.148 344.169L159.736 334.51ZM47.2841 139.736C70.0163 54.8985 157.219 4.55191 242.057 27.2841L244.645 17.6249C154.473 -6.53677 61.7865 46.9756 37.6248 137.148L47.2841 139.736ZM242.057 27.2841C312.31 46.1082 358.921 109.148 359.952 178.448L369.951 178.3C368.855 104.647 319.33 37.6365 244.645 17.6249L242.057 27.2841Z" fill="#1E1E1E"/>
<path d="M129.41 173.063C145.452 177.361 161.942 167.841 166.241 151.798C170.539 135.756 161.019 119.266 144.976 114.967C128.934 110.669 112.444 120.189 108.145 136.232C103.847 152.274 113.367 168.764 129.41 173.063Z" stroke="#1E1E1E" stroke-width="10"/>
<path d="M266.733 209.86C282.775 214.158 299.265 204.638 303.564 188.595C307.862 172.553 298.342 156.063 282.299 151.764C266.257 147.466 249.767 156.986 245.468 173.029C241.17 189.071 250.69 205.561 266.733 209.86Z" stroke="#1E1E1E" stroke-width="10"/>
<path d="M170.47 294.448C141.01 286.554 120.19 262.509 114.986 234.392C111.568 215.928 131.046 204.636 149.184 209.496L231.381 231.521C249.519 236.381 260.741 255.899 248.549 270.18C229.984 291.928 199.931 302.342 170.47 294.448Z" fill="white"/>
<path d="M170.47 294.448C141.01 286.554 120.19 262.509 114.986 234.392C111.568 215.928 131.046 204.636 149.184 209.496L231.381 231.521C249.519 236.381 260.741 255.899 248.549 270.18C229.984 291.928 199.931 302.342 170.47 294.448Z" fill="#F3CEB4"/>
<path d="M170.47 294.448C141.01 286.554 120.19 262.509 114.986 234.392C111.568 215.928 131.046 204.636 149.184 209.496L231.381 231.521C249.519 236.381 260.741 255.899 248.549 270.18C229.984 291.928 199.931 302.342 170.47 294.448Z" stroke="#1E1E1E" stroke-width="10"/>
<path d="M360.874 180.488C289.446 181.221 224.347 229.141 204.955 301.514C201.171 315.636 199.36 329.822 199.352 343.779C199.46 343.781 199.568 343.783 199.676 343.784L360.874 182.587V180.488Z" fill="white" stroke="#1E1E1E" stroke-width="10"/>
</svg>
